<?xml version="1.0" standalone="no"?>
<!DOCTYPE svg PUBLIC "-//W3C//DTD SVG 20010904//EN"
 "http://www.w3.org/TR/2001/REC-SVG-20010904/DTD/svg10.dtd">
<svg version="1.0" xmlns="http://www.w3.org/2000/svg"
 width="960.000000pt" height="960.000000pt" viewBox="0 0 960.000000 960.000000"
 preserveAspectRatio="xMidYMid meet">
<metadata>
Created by potrace 1.11, written by Peter Selinger 2001-2013
</metadata>
<g transform="translate(0.000000,960.000000) scale(0.100000,-0.100000)"
fill="#000000" stroke="none">
<path d="M2500 7529 c-357 -31 -700 -125 -986 -269 -580 -292 -993 -811 -1188
-1488 -97 -334 -136 -638 -136 -1053 0 -646 99 -1147 315 -1584 211 -428 518
-743 924 -949 383 -194 818 -277 1366 -262 258 7 391 18 612 52 222 34 512
106 671 167 l52 20 0 389 c0 353 -2 390 -16 384 -36 -14 -298 -87 -429 -120
-200 -50 -372 -84 -516 -100 -683 -80 -1170 47 -1518 395 -261 260 -415 621
-488 1139 -14 99 -17 195 -18 460 0 301 3 350 24 489 76 500 239 859 521 1141
203 204 439 330 736 391 142 29 463 37 631 15 229 -30 477 -106 806 -246 82
-34 152 -59 156 -54 19 21 321 738 314 744 -20 19 -278 125 -411 169 -236 79
-474 131 -732 161 -129 15 -561 21 -690 9z"/>
<path d="M7335 7530 c-751 -61 -1315 -292 -1764 -725 -532 -513 -794 -1263
-767 -2200 7 -240 24 -425 56 -617 165 -968 703 -1645 1525 -1917 353 -117
686 -159 1165 -148 619 15 1036 78 1593 239 l177 51 0 1373 0 1374 -1010 0
-1010 0 0 -385 0 -385 565 0 565 0 0 -699 0 -699 -51 -11 c-371 -80 -863 -115
-1144 -82 -651 77 -1103 421 -1332 1015 -147 381 -199 1004 -122 1480 72 446
255 817 536 1087 275 265 596 411 1015 465 180 22 545 15 733 -15 255 -41 540
-124 784 -228 57 -24 107 -41 111 -36 12 11 310 721 310 736 0 7 -51 32 -112
56 -341 132 -675 214 -1048 256 -160 19 -619 27 -775 15z"/>
</g>
</svg>
